<?xml version="1.0" standalone="no"?><!DOCTYPE svg PUBLIC "-//W3C//DTD SVG 1.1//EN" "http://www.w3.org/Graphics/SVG/1.1/DTD/svg11.dtd"><svg t="1500823266365" class="icon" style="" viewBox="0 0 1024 1024" version="1.1" xmlns="http://www.w3.org/2000/svg" p-id="26565" xmlns:xlink="http://www.w3.org/1999/xlink" width="200" height="200"><defs><style type="text/css"></style></defs><path d="M840.533333 622.933333h-38.4v78.933334c0 14.933333-12.8 25.6-25.6 25.6h-618.666666c-14.933333 0-25.6-12.8-25.6-25.6V322.133333c0-14.933333 12.8-25.6 25.6-25.6h616.533333c14.933333 0 25.6 10.666667 25.6 25.6v91.733334h38.4c29.866667 0 53.333333 23.466667 53.333333 53.333333v104.533333c0 27.733333-23.466667 51.2-51.2 51.2zM524.8 334.933333l-130.133333 157.866667 91.733333 25.6-66.133333 157.866667 170.666666-183.466667-91.733333-25.6 25.6-132.266667z" p-id="26566"></path></svg>